<svg viewBox="0 0 525 500" xmlns:xlink="http://www.w3.org/1999/xlink" xmlns="http://www.w3.org/2000/svg" width="525" height="500" aria-label="A chart." style="overflow: hidden;"><defs id="_ABSTRACT_RENDERER_ID_0"></defs><g><text text-anchor="start" x="79" y="51.6" font-family="Arial" font-size="16" font-weight="bold" stroke="none" stroke-width="0px" fill="#424242">ARABIC LANGUAGE TIMELINE</text><rect x="79" y="38" width="368" height="16" stroke="none" stroke-width="0px" fill-opacity="0" fill="#FFFFFF"></rect></g><g><rect x="79" y="456" width="368" height="13" stroke="none" stroke-width="0px" fill-opacity="0" fill="#FFFFFF"></rect><g column-id="1st term (Beginner level)"><rect x="79" y="456" width="134" height="13" stroke="none" stroke-width="0px" fill-opacity="0" fill="#FFFFFF"></rect><g><text text-anchor="start" x="97" y="467.05" font-family="Arial" font-size="13" stroke="none" stroke-width="0px" fill="#222222">1st term (Beginne…</text><rect x="97" y="456" width="116" height="13" stroke="none" stroke-width="0px" fill-opacity="0" fill="#FFFFFF"></rect></g><circle cx="85.5" cy="462.5" r="6.5" stroke="none" stroke-width="0px" fill="#3366CC"></circle></g><g column-id="2nd term-Beginner level 2"><rect x="234" y="456" width="134" height="13" stroke="none" stroke-width="0px" fill-opacity="0" fill="#FFFFFF"></rect><g><text text-anchor="start" x="252" y="467.05" font-family="Arial" font-size="13" stroke="none" stroke-width="0px" fill="#222222">2nd term-Beginne…</text><rect x="252" y="456" width="116" height="13" stroke="none" stroke-width="0px" fill-opacity="0" fill="#FFFFFF"></rect></g><circle cx="240.5" cy="462.5" r="6.5" stroke="none" stroke-width="0px" fill="#DC3912"></circle></g><path d="M406,469L406,456L393,463Z" stroke="none" stroke-width="0px" fill="#CCCCCC"></path><g><text text-anchor="middle" x="420" y="467.05" font-family="Arial" font-size="13" stroke="none" stroke-width="0px" fill="#0011CC">1/2</text></g><path d="M434,456L447,463L434,469Z" stroke="none" stroke-width="0px" fill="#0011CC"></path></g><g><path d="M263.45793961712576,241.26199157089746L272.1587923425152,75.23983141794957A175,175,0,0,1,318.8178791271622,415.8594717516775L265.7908939563581,258.2929735875839A8.75,8.75,0,0,0,263.45793961712576,241.26199157089746" stroke="#FFFFFF" stroke-width="1" fill="#3366CC"></path><text text-anchor="start" x="396.79974263656084" y="234.4409366326258" font-family="Arial" font-size="13" stroke="none" stroke-width="0px" fill="#FFFFFF">44%</text></g><g><path d="M255.56343893636495,245.38913678940406L114.26877872729881,157.78273578808142A175,175,0,0,1,272.1587923425152,75.23983141794957L263.45793961712576,241.26199157089746A8.75,8.75,0,0,0,255.56343893636495,245.38913678940406" stroke="#FFFFFF" stroke-width="1" fill="#109618"></path><text text-anchor="start" x="180.50874702310426" y="121.6254928920249" font-family="Arial" font-size="13" stroke="none" stroke-width="0px" fill="#FFFFFF">17%</text></g><g><path d="M255.37687915269834,254.29540784413248L110.53758305396681,335.9081568826496A175,175,0,0,1,114.26877872729881,157.78273578808142L255.56343893636495,245.38913678940406A8.75,8.75,0,0,0,255.37687915269834,254.29540784413248" stroke="#FFFFFF" stroke-width="1" fill="#FF9900"></path><text text-anchor="start" x="101.28559305218019" y="251.43487724909716" font-family="Arial" font-size="13" stroke="none" stroke-width="0px" fill="#FFFFFF">17%</text></g><g><path d="M265.7908939563581,258.2929735875839L318.8178791271622,415.8594717516775A175,175,0,0,1,110.53758305396681,335.9081568826496L255.37687915269834,254.29540784413248A8.75,8.75,0,0,0,265.7908939563581,258.2929735875839" stroke="#FFFFFF" stroke-width="1" fill="#DC3912"></path><text text-anchor="start" x="195.89510541151853" y="395.4980692388639" font-family="Arial" font-size="13" stroke="none" stroke-width="0px" fill="#FFFFFF">22%</text></g><g></g></svg>